<svg width="190" height="47" viewBox="0 0 190 47" fill="none" xmlns="http://www.w3.org/2000/svg">
<path fill-rule="evenodd" clip-rule="evenodd" d="M95.9175 42.3538C95.9175 42.3538 97.0437 41.8078 99.019 41.0732C100.037 41.56 102.267 42.5741 104.427 43.1981C107.351 44.0425 109.299 43.9125 112.028 43.9125C114.756 43.9125 118.653 43.4578 118.653 43.4578C118.653 43.4578 118.069 41.3144 118.004 39.7554C117.939 38.1961 117.939 37.9364 117.939 37.9364C117.939 37.9364 117.354 40.1451 117.484 41.3144C117.614 42.4834 117.614 42.8734 117.614 42.8734C117.614 42.8734 112.482 43.3931 108.845 43.0031C105.207 42.6134 102.998 42.2234 101.439 41.7041C100.58 41.4175 99.7608 41.171 99.198 41.0069C101.954 39.9923 106.267 38.6479 111.443 37.8717C120.537 36.5074 118.718 36.962 118.718 36.962C118.718 36.962 118.913 36.5723 120.082 36.4427C121.252 36.3127 133.204 35.728 136.907 35.9877C140.61 36.2474 150.808 36.7673 152.302 37.7417C153.796 38.716 154.381 39.6904 153.926 42.0938C153.472 44.4974 152.562 46.8361 151.718 46.3162C150.873 45.7965 148.015 43.5881 145.287 43.1981C142.559 42.8084 139.57 42.8734 138.336 43.1981C137.102 43.5231 135.023 44.8222 134.049 44.4975C133.074 44.1728 131.126 42.3538 129.567 43.0034C128.008 43.6531 127.943 43.8478 127.228 44.7571C126.514 45.6668 125.539 46.7062 124.76 45.7318C123.98 44.7572 122.551 44.3025 121.317 44.2375C120.083 44.1728 118.978 44.5625 118.653 44.8871C118.328 45.2121 117.874 45.8615 117.874 45.8615C117.874 45.8615 115.86 45.3421 113.521 45.6018C111.183 45.8615 107.156 46.0565 104.427 45.5368C101.699 45.0171 95.9175 42.3538 95.9175 42.3538ZM120.472 43.1331C120.472 43.1331 123.071 42.6784 124.045 43.3928C125.02 44.1075 125.214 44.6922 126.968 43.2631C128.722 41.8338 129.826 40.7944 131.775 41.8338C133.724 42.8734 134.634 43.5228 136.517 42.5485C138.401 41.5741 142.494 40.5348 145.937 41.9638C149.379 43.3928 152.043 45.6665 152.562 44.2375C153.082 42.8081 153.342 41.2491 150.679 40.6647C148.015 40.0801 144.053 39.4304 140.415 40.0151C136.777 40.5997 136.128 42.2885 134.634 41.8338C133.139 41.3791 131.516 40.0151 129.697 40.7294C127.878 41.4441 126.319 43.6528 124.825 42.9381C123.331 42.2238 122.291 41.5741 121.382 42.0288C120.472 42.4835 120.472 43.1331 120.472 43.1331Z" fill="#1F1C21"/>
<path opacity="0.88" d="M1.52161 0.342795V10.0029H1.96659C2.00097 9.44913 2.0866 8.88944 2.2294 8.33008C2.36628 7.76478 2.54314 7.22263 2.76595 6.70296C2.98282 6.18891 3.23406 5.7211 3.51937 5.2983C3.79936 4.88175 4.10748 4.54456 4.4334 4.28175C4.67309 4.08238 4.9812 3.89364 5.36369 3.71115C5.74619 3.52834 6.20305 3.37991 6.73398 3.26585C7.27084 3.14585 7.88177 3.08868 8.578 3.08305H15.8403L0.562256 24.1162L0.63069 24.3219H22.7261V13.2228H22.2808C22.2464 13.8512 22.1833 14.4902 22.092 15.1355C21.9952 15.7808 21.8639 16.409 21.6927 17.0196C21.5155 17.6305 21.2927 18.1958 21.0189 18.7211C20.7449 19.2408 20.4136 19.6917 20.0196 20.0742C19.523 20.5367 18.9977 20.8735 18.4496 21.0907C17.8959 21.3076 17.3478 21.4444 16.7937 21.5016C16.2459 21.5644 15.7206 21.587 15.2238 21.5813H7.6874L22.8973 0.548112L22.7261 0.342795H1.52161ZM29.6115 20.4854C29.6172 20.7648 29.6059 21.0504 29.5718 21.3473C29.5431 21.6441 29.4631 21.941 29.3434 22.2266C29.2234 22.5122 29.0234 22.7804 28.7553 23.0204C28.4981 23.2313 28.2131 23.3972 27.8872 23.5057C27.5678 23.62 27.2366 23.6997 26.8941 23.7453C26.5513 23.791 26.226 23.825 25.9119 23.8425L25.3297 23.8766V24.3219H49.3773V13.9078H48.932L48.8295 14.9702C48.7779 15.5352 48.6979 16.0949 48.5954 16.6655C48.4867 17.2308 48.3154 17.7789 48.0701 18.3098C47.8301 18.8467 47.4764 19.3376 47.0139 19.8001C46.8711 19.9486 46.6599 20.1257 46.3858 20.3251C46.1114 20.5251 45.7636 20.7195 45.3352 20.9076C44.9071 21.102 44.393 21.2617 43.7937 21.3876C43.194 21.5129 42.4978 21.5757 41.704 21.5813H33.8592V4.17925C33.8536 3.97925 33.8648 3.72833 33.8995 3.43146C33.928 3.1346 34.0077 2.82618 34.1277 2.5065C34.2536 2.18651 34.4473 1.90152 34.7158 1.64434C34.9614 1.42747 35.2467 1.26746 35.572 1.15933C35.9036 1.04496 36.2401 0.964981 36.5885 0.919044C36.931 0.873733 37.2567 0.839341 37.5591 0.822153L38.1416 0.788097V0.342795H25.3297V0.788097L25.9119 0.822153C26.2148 0.839341 26.5401 0.873733 26.8885 0.919044C27.2307 0.964981 27.5678 1.04496 27.8988 1.15933C28.2244 1.26746 28.51 1.42747 28.7553 1.64434C29.0234 1.90152 29.2234 2.18651 29.3434 2.5065C29.4631 2.82618 29.5431 3.1346 29.5718 3.43146C29.6059 3.72833 29.6172 3.97925 29.6115 4.17925V20.4854ZM62.0179 0L54.55 18.0189C54.299 18.6067 54.0706 19.1092 53.865 19.5204C53.6594 19.9314 53.4825 20.2742 53.3284 20.5479C53.1741 20.8163 53.0428 21.0335 52.9403 21.2045C52.8316 21.3876 52.6775 21.6101 52.4891 21.8613C52.3006 22.1123 52.061 22.3694 51.7697 22.6319C51.4841 22.8891 51.1419 23.1232 50.7363 23.3288C50.3366 23.5341 49.8741 23.6825 49.3432 23.7741L48.6923 23.8766V24.3219H60.9904V23.8766L60.1339 23.8081C59.7973 23.7853 59.4373 23.7281 59.0548 23.6369C58.6724 23.5456 58.3127 23.4028 57.9699 23.2144C57.6277 23.026 57.3421 22.7804 57.1196 22.4719C56.9365 22.2154 56.8112 21.9129 56.7371 21.5588C56.6684 21.2104 56.6452 20.8504 56.6799 20.4798C56.708 20.1145 56.788 19.7717 56.914 19.4576L58.2158 16.2718H66.9853L68.5268 20.0401C68.6181 20.251 68.6924 20.4798 68.7608 20.7307C68.8293 20.9876 68.8634 21.2335 68.8693 21.4788C68.8634 21.9869 68.7665 22.3922 68.5724 22.6891C68.384 22.9916 68.1384 23.2144 67.8418 23.3628C67.6871 23.4541 67.499 23.5282 67.2822 23.5853C67.065 23.6425 66.8028 23.6941 66.4828 23.7338C66.1631 23.7741 65.7691 23.8081 65.3069 23.8425L64.7928 23.8766V24.3219H78.2215V23.8766L77.6731 23.8425C77.2678 23.8194 76.8678 23.7509 76.4741 23.6369C76.0804 23.5281 75.7204 23.3853 75.3894 23.2144C75.0526 23.0432 74.7782 22.8488 74.5557 22.6438C74.356 22.4438 74.1617 22.181 73.9792 21.8613C73.7907 21.536 73.5851 21.1076 73.3511 20.571C73.1226 20.0401 72.837 19.3608 72.5004 18.5326L64.93 0H62.0179ZM66.129 13.8737H59.072L62.5663 5.44673H62.6347L66.129 13.8737ZM88.5669 3.08305H91.1019C91.3015 3.07743 91.5531 3.08867 91.8556 3.1118C92.1581 3.13461 92.4834 3.18024 92.8374 3.26023C93.1915 3.33429 93.5452 3.45398 93.8993 3.61429C94.259 3.77991 94.5902 4.00239 94.9043 4.28175C95.1899 4.54456 95.4467 4.89298 95.6808 5.33266C95.9089 5.77202 96.1148 6.25763 96.2858 6.78856C96.463 7.32511 96.6055 7.86791 96.7142 8.41571C96.8223 8.96382 96.8911 9.48319 96.9254 9.96881H97.3708V0.342795H75.5154V9.96881H75.9607C75.9947 9.48319 76.0688 8.96382 76.1776 8.41571C76.2804 7.86791 76.4229 7.32511 76.5997 6.78856C76.7713 6.25763 76.9766 5.77202 77.2109 5.33266C77.4394 4.89298 77.6963 4.54456 77.9816 4.28175C78.2956 4.00239 78.6269 3.77991 78.9862 3.61429C79.3406 3.45398 79.6947 3.33429 80.0487 3.26023C80.4024 3.18024 80.7281 3.13461 81.0306 3.1118C81.333 3.08867 81.5843 3.07743 81.7843 3.08305H84.3192V20.4854C84.3249 20.6851 84.3136 20.9363 84.2789 21.2335C84.2505 21.5304 84.1708 21.8385 84.0508 22.1582C83.9311 22.4719 83.7311 22.7632 83.4627 23.0204C83.2171 23.2313 82.9317 23.3972 82.6064 23.5057C82.2749 23.62 81.9383 23.6941 81.5955 23.7453C81.2474 23.791 80.9218 23.8194 80.6193 23.8425L80.0368 23.8766V24.3219H92.8487V23.8766L92.2665 23.8425C91.9637 23.8194 91.6384 23.791 91.2959 23.7453C90.9478 23.6941 90.6106 23.62 90.2797 23.5057C89.9541 23.3972 89.6691 23.2313 89.4231 23.0204C89.155 22.7632 88.9607 22.4719 88.835 22.1582C88.7154 21.8385 88.6353 21.5304 88.6066 21.2335C88.5725 20.9363 88.5613 20.6851 88.5669 20.4854V3.08305ZM132.21 0.342795H121.933L115.527 16.6146H115.424L109.018 0.342795H98.3301V0.788097L98.9126 0.822153C99.2151 0.839341 99.5404 0.873733 99.8888 0.919044C100.231 0.964981 100.568 1.04496 100.899 1.15933C101.225 1.26746 101.51 1.42747 101.756 1.64434C102.024 1.90152 102.224 2.18651 102.344 2.5065C102.463 2.82618 102.543 3.1346 102.572 3.43146C102.606 3.72833 102.618 3.97925 102.612 4.17925V19.8001C102.618 20.0629 102.601 20.3823 102.567 20.7592C102.532 21.136 102.452 21.5185 102.327 21.9013C102.207 22.2838 102.013 22.6091 101.756 22.8835C101.533 23.1004 101.248 23.2772 100.911 23.4144C100.574 23.5513 100.225 23.6541 99.8716 23.7225C99.512 23.791 99.1923 23.8309 98.9126 23.8425L98.3301 23.8766V24.3219H109.874V23.8766L109.292 23.8425C109.012 23.8309 108.693 23.791 108.333 23.7225C107.979 23.6541 107.631 23.5513 107.294 23.4144C106.957 23.2772 106.671 23.1004 106.449 22.8835C106.243 22.6719 106.083 22.4266 105.969 22.141C105.849 21.8557 105.764 21.5644 105.712 21.2616C105.661 20.9648 105.627 20.6851 105.61 20.4282C105.598 20.1654 105.592 19.9601 105.592 19.8001V3.66553H105.695L113.848 24.3219H115.424L123.577 3.66553H123.68V20.4854C123.685 20.6851 123.674 20.9363 123.64 21.2335C123.611 21.5304 123.537 21.8385 123.411 22.1582C123.291 22.4719 123.092 22.7632 122.823 23.0204C122.578 23.2313 122.292 23.3972 121.967 23.5057C121.636 23.62 121.299 23.6941 120.956 23.7453C120.608 23.791 120.283 23.8194 119.98 23.8425L119.398 23.8766V24.3219H132.21V23.8766L131.627 23.8425C131.325 23.8194 130.999 23.791 130.656 23.7453C130.308 23.6941 129.972 23.62 129.646 23.5057C129.315 23.3972 129.029 23.2313 128.784 23.0204C128.515 22.7632 128.322 22.4719 128.196 22.1582C128.076 21.8385 127.996 21.5304 127.967 21.2335C127.939 20.9363 127.922 20.6851 127.928 20.4854V4.17925C127.922 3.97925 127.939 3.72833 127.967 3.43146C127.996 3.1346 128.076 2.82618 128.196 2.5065C128.322 2.18651 128.515 1.90152 128.784 1.64434C129.029 1.42747 129.315 1.26746 129.646 1.15933C129.972 1.04496 130.308 0.964981 130.656 0.919044C130.999 0.873733 131.325 0.839341 131.627 0.822153L132.21 0.788097V0.342795ZM144.781 0L137.314 18.0189C137.063 18.6067 136.834 19.1092 136.629 19.5204C136.423 19.9314 136.246 20.2742 136.092 20.5479C135.938 20.8163 135.806 21.0335 135.704 21.2045C135.595 21.3876 135.441 21.6101 135.253 21.8613C135.064 22.1123 134.825 22.3694 134.533 22.6319C134.248 22.8891 133.905 23.1232 133.5 23.3288C133.1 23.5341 132.638 23.6825 132.107 23.7741L131.456 23.8766V24.3219H143.754V23.8766L142.897 23.8081C142.561 23.7853 142.201 23.7281 141.818 23.6369C141.436 23.5456 141.076 23.4028 140.733 23.2144C140.391 23.026 140.106 22.7804 139.883 22.4719C139.7 22.2154 139.575 21.9129 139.501 21.5588C139.432 21.2104 139.409 20.8504 139.443 20.4798C139.472 20.1145 139.552 19.7717 139.678 19.4576L140.979 16.2718H149.749L151.29 20.0401C151.382 20.251 151.456 20.4798 151.524 20.7307C151.593 20.9876 151.627 21.2335 151.633 21.4788C151.627 21.9869 151.53 22.3922 151.336 22.6891C151.148 22.9916 150.902 23.2144 150.605 23.3628C150.451 23.4541 150.263 23.5282 150.046 23.5853C149.829 23.6425 149.566 23.6941 149.246 23.7338C148.927 23.7741 148.533 23.8081 148.07 23.8425L147.556 23.8766V24.3219H160.985V23.8766L160.437 23.8425C160.031 23.8194 159.631 23.7509 159.238 23.6369C158.844 23.5281 158.484 23.3853 158.153 23.2144C157.816 23.0432 157.542 22.8488 157.319 22.6438C157.12 22.4438 156.926 22.181 156.743 21.8613C156.554 21.536 156.349 21.1076 156.115 20.571C155.886 20.0401 155.601 19.3608 155.264 18.5326L147.694 0H144.781ZM148.893 13.8737H141.836L145.33 5.44673H145.398L148.893 13.8737ZM159.752 0.342795V0.788097L160.403 0.92527C160.819 1.02214 161.248 1.20466 161.687 1.46746C162.127 1.72996 162.549 2.03243 162.954 2.38086C163.36 2.72929 163.72 3.07743 164.034 3.42554L171.947 12.2297L165.267 20.0058C165.153 20.1486 164.987 20.3195 164.782 20.5251C164.576 20.7307 164.348 20.9479 164.108 21.1704C163.863 21.3932 163.634 21.5988 163.412 21.787C163.195 21.9757 163.012 22.1241 162.869 22.2323C162.332 22.6263 161.75 22.9688 161.122 23.2488C160.5 23.5281 159.883 23.7397 159.272 23.8766V24.3219H172.735V23.8766L171.913 23.8081C171.268 23.751 170.771 23.6766 170.417 23.5913C170.069 23.4997 169.835 23.4369 169.72 23.3972C169.475 23.3056 169.246 23.1916 169.03 23.0375C168.813 22.8891 168.63 22.7004 168.493 22.4607C168.356 22.2266 168.287 21.9354 168.282 21.5813C168.287 21.3132 168.361 21.0335 168.499 20.7367C168.636 20.4398 168.79 20.1654 168.967 19.9145C169.144 19.6632 169.292 19.4632 169.412 19.3204L173.763 14.2506L178.456 19.4232C178.701 19.6861 178.93 19.9601 179.147 20.2398C179.363 20.5251 179.546 20.8107 179.683 21.1076C179.82 21.3988 179.889 21.6957 179.894 21.9926C179.889 22.3294 179.797 22.6091 179.615 22.8319C179.437 23.0488 179.198 23.2257 178.901 23.3628C178.587 23.5169 178.222 23.6313 177.817 23.7056C177.411 23.7797 177.006 23.825 176.606 23.8425L175.613 23.8766V24.3219H190V23.8766C189.623 23.8309 189.212 23.7338 188.773 23.5853C188.327 23.4369 187.859 23.2029 187.362 22.8835C186.74 22.4494 186.135 21.9298 185.558 21.3132C184.982 20.702 184.37 20.0282 183.731 19.2864L176.434 11.1331L181.059 5.78953C181.39 5.40704 181.739 5.00144 182.104 4.56739C182.475 4.13334 182.869 3.71114 183.291 3.29991C183.709 2.88898 184.165 2.51804 184.656 2.19211C184.959 1.99837 185.29 1.80963 185.661 1.63308C186.032 1.45621 186.42 1.30777 186.825 1.17621C187.225 1.04496 187.619 0.947789 188.013 0.890603L188.698 0.788097V0.342795H174.927V0.788097L175.783 0.856546C176.412 0.907795 176.926 0.999014 177.325 1.12464C177.725 1.25057 178.033 1.40464 178.25 1.57589C178.502 1.76432 178.684 1.96994 178.787 2.19837C178.89 2.43243 178.941 2.689 178.936 2.98024C178.93 3.32305 178.884 3.62551 178.787 3.89926C178.695 4.168 178.581 4.40208 178.444 4.6077C178.307 4.81332 178.176 4.99017 178.045 5.1386L174.619 9.14665L169.755 3.73395C169.572 3.52833 169.441 3.34586 169.372 3.18586C169.304 3.02618 169.269 2.87775 169.275 2.74056C169.269 2.47776 169.332 2.2212 169.475 1.96995C169.612 1.7184 169.863 1.4959 170.234 1.30185C170.411 1.22154 170.617 1.14746 170.856 1.08496C171.096 1.02215 171.342 0.970602 171.587 0.930915C171.833 0.896541 172.055 0.868108 172.255 0.856546L173.043 0.788097V0.342795H159.752Z" fill="#1F1C21"/>
<path d="M0.492175 39.6121C0.639046 39.52 0.801537 39.4359 0.979346 39.3575C1.15715 39.28 1.34496 39.2171 1.54246 39.17C1.74151 39.1215 1.94307 39.0978 2.14651 39.0956C2.43025 39.0956 2.67838 39.1446 2.88962 39.2406C3.10274 39.3381 3.2668 39.479 3.38586 39.6649C3.50335 39.8528 3.56398 40.0812 3.56616 40.3512C3.56398 40.5546 3.5171 40.744 3.42116 40.9202C3.3271 41.0958 3.1943 41.2483 3.02431 41.3815C2.85619 41.5143 2.65868 41.618 2.43181 41.6924C2.20744 41.7664 1.96276 41.8039 1.70058 41.8058H1.2431V42.5802H1.71215C1.9162 42.5802 2.11932 42.5939 2.32244 42.6249C2.52743 42.6542 2.7215 42.7049 2.90525 42.7752C3.08712 42.8461 3.25116 42.9399 3.39397 43.0567C3.53678 43.1742 3.65023 43.3189 3.7321 43.4908C3.81616 43.663 3.8574 43.8686 3.85928 44.1051C3.85928 44.3961 3.78897 44.6545 3.65022 44.8792C3.50929 45.1061 3.30585 45.282 3.03836 45.411C2.76805 45.5382 2.44182 45.6045 2.05245 45.607C1.83215 45.6045 1.61278 45.581 1.39559 45.536C1.17685 45.491 0.971224 45.4323 0.779979 45.3604C0.585922 45.2879 0.416243 45.2095 0.269372 45.1254L0 45.9235C0.30843 46.1032 0.639055 46.236 0.993109 46.3185C1.34654 46.4001 1.70464 46.4416 2.06463 46.4395C2.35587 46.4395 2.6393 46.4123 2.9168 46.357C3.19648 46.3023 3.45616 46.2182 3.69928 46.1032C3.94333 45.9879 4.15646 45.8395 4.34239 45.6592C4.5277 45.4773 4.67269 45.2626 4.778 45.0105C4.88362 44.7583 4.93645 44.4686 4.93832 44.1404C4.93082 43.7586 4.84426 43.4286 4.67614 43.1474C4.50802 42.8658 4.28115 42.6389 3.99241 42.4708C3.70273 42.3027 3.37461 42.1989 3.00305 42.1574V42.1346C3.31179 42.0618 3.58741 41.9346 3.83146 41.7549C4.07646 41.5749 4.27209 41.3521 4.41427 41.0858C4.55708 40.8205 4.62958 40.5252 4.63364 40.1987C4.62958 39.7899 4.53176 39.4415 4.33645 39.1543C4.14083 38.8672 3.87085 38.6459 3.52304 38.4934C3.17461 38.3412 2.77212 38.2647 2.31056 38.2631C1.8787 38.2647 1.48933 38.3219 1.1434 38.4287C0.799663 38.5387 0.492171 38.6809 0.222803 38.8612L0.492175 39.6121ZM6.85046 38.4034V41.7355C6.85265 42.0539 6.84639 42.3827 6.83076 42.7189C6.81701 43.0552 6.78764 43.3799 6.74264 43.6942C6.69608 44.0092 6.62734 44.293 6.53359 44.547C6.43984 44.8008 6.31484 45.0045 6.15828 45.1607C6.06047 45.2567 5.93954 45.3442 5.79079 45.4248C5.64174 45.5032 5.48737 45.5558 5.32518 45.5833L5.45424 46.4042C5.60892 46.4026 5.75923 46.3848 5.91016 46.3479C6.05859 46.3123 6.19922 46.2654 6.33047 46.2085C6.46109 46.152 6.57452 46.0932 6.67421 46.0289C6.89358 45.8764 7.07545 45.6829 7.2217 45.4501C7.36669 45.2154 7.482 44.9517 7.56762 44.6586C7.65418 44.3633 7.71856 44.0498 7.75949 43.7177C7.80262 43.3833 7.8298 43.0436 7.84168 42.6936C7.85543 42.3433 7.86136 41.9974 7.85918 41.653V39.2603H10.4638V46.3104H11.496V38.4034H6.85046ZM17.3499 43.8236L18.1945 46.3104H19.2854L16.5874 38.4034H15.3674L12.6691 46.3104H13.725L14.5459 43.8236H17.3499ZM14.7571 43.0258L15.5315 40.7384C15.6134 40.4959 15.6859 40.2552 15.7487 40.0127C15.813 39.7721 15.8737 39.5356 15.9305 39.3068H15.9537C16.0105 39.5337 16.0733 39.7687 16.1377 40.0071C16.2024 40.2452 16.2783 40.4918 16.364 40.7496L17.1505 43.0258H14.7571ZM21.9479 46.3104H22.9801V39.2718H25.3972V38.4034H19.5436V39.2718H21.9479V46.3104ZM29.4671 38.2631C28.9374 38.2647 28.4487 38.3628 28.0049 38.5584C27.559 38.7537 27.174 39.0334 26.8459 39.3968C26.5172 39.7624 26.2631 40.1987 26.0828 40.7071C25.9009 41.2174 25.8094 41.7861 25.8072 42.4161C25.8094 43.0158 25.8953 43.5611 26.0675 44.0539C26.2397 44.5451 26.4818 44.9689 26.7968 45.3254C27.1118 45.6811 27.4871 45.9545 27.9209 46.1479C28.3549 46.3398 28.834 46.4376 29.3618 46.4395C29.7668 46.4395 30.1536 46.3807 30.5192 46.2654C30.8849 46.152 31.2214 45.9798 31.5261 45.7532C31.8314 45.5264 32.0973 45.247 32.3217 44.9108C32.547 44.5764 32.7233 44.1892 32.8457 43.7489C32.9689 43.3089 33.0317 42.8168 33.0335 42.2749C33.0317 41.6824 32.9476 41.143 32.7814 40.6543C32.6154 40.1637 32.3764 39.7409 32.0639 39.3853C31.7529 39.0278 31.3777 38.7518 30.9398 38.5584C30.5036 38.3643 30.0114 38.2647 29.4671 38.2631ZM29.4321 39.0956C29.7724 39.0978 30.0774 39.1584 30.3477 39.2799C30.6192 39.399 30.8536 39.5649 31.0552 39.7743C31.2567 39.9852 31.4248 40.2281 31.5576 40.5015C31.6908 40.7752 31.7904 41.0687 31.8567 41.3774C31.9211 41.6883 31.9545 42.0033 31.9545 42.3221C31.9545 42.7736 31.8979 43.198 31.7864 43.593C31.6745 43.988 31.5105 44.3355 31.2958 44.6367C31.0786 44.938 30.8145 45.1745 30.4996 45.3467C30.1852 45.5164 29.8252 45.6029 29.4205 45.607C29.0958 45.6045 28.8012 45.5482 28.5349 45.4364C28.269 45.3229 28.0343 45.1664 27.8293 44.9654C27.6237 44.7639 27.4515 44.5273 27.3127 44.2595C27.1721 43.9895 27.0662 43.6964 26.9943 43.3798C26.924 43.0633 26.8865 42.7342 26.8865 42.3924C26.8865 42.0465 26.9199 41.7102 26.9887 41.3871C27.0546 41.0646 27.1568 40.7637 27.2931 40.4862C27.4284 40.2103 27.5984 39.9677 27.8015 39.759C28.0049 39.5515 28.2437 39.3893 28.5155 39.2734C28.7871 39.1565 29.0918 39.0978 29.4321 39.0956ZM33.491 38.4034L36.1188 43.753C36.1656 43.8452 36.195 43.9252 36.2028 43.9977C36.2103 44.0695 36.195 44.1479 36.1541 44.2342C36.0897 44.377 36.0113 44.5273 35.9175 44.6817C35.8235 44.8383 35.7141 44.9826 35.5869 45.1198C35.4597 45.2567 35.3151 45.3661 35.1529 45.452C34.9904 45.5361 34.8066 45.5811 34.6054 45.5833C34.5179 45.5833 34.4435 45.581 34.3807 45.5751C34.3179 45.5695 34.2651 45.5595 34.2182 45.5482L34.1245 46.3807C34.1891 46.4042 34.2673 46.422 34.3588 46.4335C34.4526 46.4451 34.566 46.451 34.6991 46.451C35.0491 46.451 35.3722 46.3691 35.6653 46.2066C35.9582 46.0426 36.2322 45.8004 36.4822 45.4773C36.6232 45.2936 36.7603 45.0864 36.891 44.852C37.0241 44.617 37.1513 44.3689 37.2744 44.1051C37.3978 43.8411 37.5169 43.5711 37.6303 43.2974C37.7453 43.0217 37.855 42.7524 37.9609 42.4861L39.6265 38.4034H38.5468L37.3038 41.7589C37.21 42.0383 37.1238 42.2961 37.0453 42.5311C36.9675 42.7636 36.8928 42.9808 36.8225 43.1783H36.7875C36.6994 42.9499 36.6094 42.7205 36.5156 42.4902C36.4219 42.2611 36.3238 42.0287 36.2244 41.7943L34.6526 38.4034H33.491ZM45.7848 45.2429C45.646 45.3092 45.4876 45.3679 45.3079 45.417C45.1279 45.4657 44.9367 45.5032 44.7329 45.5301C44.5279 45.5579 44.3204 45.571 44.1076 45.571C43.468 45.5676 42.9227 45.4382 42.473 45.1801C42.0233 44.9223 41.679 44.5567 41.4405 44.0817C41.2024 43.6083 41.0824 43.0452 41.0808 42.3924C41.0824 41.8718 41.1568 41.4108 41.3018 41.0059C41.448 40.6034 41.6577 40.2609 41.9271 39.9834C42.1989 39.7037 42.5236 39.4928 42.9014 39.3478C43.2802 39.2034 43.7005 39.1312 44.1664 39.1312C44.4967 39.1331 44.7954 39.164 45.0632 39.2253C45.3317 39.2856 45.5601 39.364 45.7495 39.4593L46.0076 38.6262C45.9176 38.5775 45.787 38.5268 45.6167 38.4722C45.4467 38.419 45.2379 38.3725 44.9914 38.335C44.7426 38.2959 44.4555 38.2768 44.1305 38.2747C43.5152 38.2768 42.9561 38.3765 42.4511 38.574C41.9468 38.7715 41.5127 39.0531 41.1471 39.4187C40.7815 39.7843 40.4999 40.2218 40.3024 40.7284C40.1031 41.2368 40.0037 41.804 40.0012 42.4274C40.0052 43.0786 40.1031 43.6533 40.2965 44.1536C40.4902 44.6523 40.7618 45.0707 41.1143 45.4095C41.4643 45.7492 41.8749 46.0054 42.3474 46.1792C42.8189 46.3513 43.3349 46.4395 43.8964 46.4395C44.2186 46.4376 44.5142 46.4198 44.7842 46.3848C45.0536 46.3479 45.2926 46.3007 45.4957 46.2442C45.6988 46.1873 45.8614 46.1285 45.9845 46.0639L45.7848 45.2429ZM48.7756 46.3104H49.8081V39.2718H52.2253V38.4034H46.3713V39.2718H48.7756V46.3104ZM56.2951 38.2631C55.7655 38.2647 55.2767 38.3628 54.8327 38.5584C54.3871 38.7537 54.0021 39.0334 53.6737 39.3968C53.3449 39.7624 53.0912 40.1987 52.9109 40.7071C52.729 41.2174 52.6374 41.7861 52.6352 42.4161C52.6374 43.0158 52.723 43.5611 52.8952 44.0539C53.0674 44.5451 53.3099 44.9689 53.6249 45.3254C53.9399 45.6811 54.3152 45.9545 54.7486 46.1479C55.1827 46.3398 55.6617 46.4376 56.1898 46.4395C56.5945 46.4395 56.9814 46.3807 57.347 46.2654C57.7126 46.152 58.0495 45.9798 58.3542 45.7532C58.6592 45.5264 58.9254 45.247 59.1498 44.9108C59.3751 44.5764 59.551 44.1892 59.6738 43.7489C59.7969 43.3089 59.8597 42.8168 59.8613 42.2749C59.8597 41.6824 59.7757 41.143 59.6091 40.6543C59.4435 40.1637 59.2045 39.7409 58.892 39.3853C58.581 39.0278 58.2054 38.7518 57.7679 38.5584C57.3317 38.3643 56.8392 38.2647 56.2951 38.2631ZM56.2601 39.0956C56.6004 39.0978 56.9054 39.1584 57.1754 39.2799C57.4473 39.399 57.6817 39.5649 57.8832 39.7743C58.0848 39.9852 58.2529 40.2281 58.3857 40.5015C58.5188 40.7752 58.6185 41.0687 58.6845 41.3774C58.7491 41.6883 58.7826 42.0033 58.7826 42.3221C58.7826 42.7736 58.726 43.198 58.6145 43.593C58.5026 43.988 58.3385 44.3355 58.1239 44.6367C57.9067 44.938 57.6426 45.1745 57.3276 45.3467C57.0132 45.5164 56.6533 45.6029 56.2486 45.607C55.9239 45.6045 55.6289 45.5482 55.363 45.4364C55.097 45.3229 54.8621 45.1664 54.6571 44.9654C54.4518 44.7639 54.2796 44.5273 54.1408 44.2595C54.0002 43.9895 53.8943 43.6964 53.8224 43.3798C53.7521 43.0633 53.7146 42.7342 53.7146 42.3924C53.7146 42.0465 53.748 41.7102 53.8165 41.3871C53.8827 41.0646 53.9846 40.7637 54.1212 40.4862C54.2565 40.2103 54.4261 39.9677 54.6296 39.759C54.8327 39.5515 55.0718 39.3893 55.3436 39.2734C55.6152 39.1565 55.9198 39.0978 56.2601 39.0956ZM61.1869 46.2867C61.3572 46.3104 61.5759 46.3316 61.8419 46.3513C62.1081 46.3691 62.4191 46.3788 62.7706 46.3807C63.4162 46.3807 63.9637 46.322 64.4134 46.201C64.8646 46.0795 65.2246 45.8942 65.4924 45.642C65.6996 45.4542 65.8662 45.2292 65.9868 44.9654C66.1083 44.7011 66.1705 44.3983 66.173 44.058C66.1705 43.7648 66.1199 43.5048 66.0243 43.2795C65.9265 43.0552 65.7993 42.8593 65.6393 42.6993C65.4787 42.5368 65.3046 42.4061 65.1131 42.3043C64.9234 42.2024 64.7318 42.1305 64.5424 42.0874V42.0521C64.818 41.9524 65.0543 41.8155 65.254 41.6433C65.453 41.4712 65.6074 41.2721 65.7152 41.0452C65.8227 40.8183 65.8774 40.5759 65.8793 40.3156C65.8774 40.0046 65.8171 39.7312 65.6996 39.4987C65.5805 39.2659 65.4181 39.0725 65.2109 38.92C65.0524 38.7868 64.8706 38.6775 64.6656 38.5934C64.4599 38.5093 64.2234 38.4468 63.9596 38.4059C63.6937 38.3643 63.3909 38.3447 63.0522 38.3447C62.8156 38.3447 62.5831 38.3528 62.3544 38.3665C62.1253 38.3822 61.9122 38.4019 61.7131 38.4287C61.5116 38.4547 61.3375 38.4859 61.1869 38.5209V46.2867ZM62.2075 39.2015C62.2878 39.1818 62.3994 39.1665 62.5437 39.1525C62.6884 39.1387 62.8784 39.1312 63.1109 39.1312C63.4572 39.129 63.76 39.174 64.0162 39.2622C64.2746 39.35 64.4756 39.4887 64.6184 39.6806C64.7612 39.8699 64.8337 40.1165 64.8352 40.4215C64.8352 40.6777 64.7668 40.9065 64.6321 41.1077C64.4974 41.3071 64.3034 41.4655 64.0496 41.5805C63.7975 41.698 63.4921 41.7568 63.1347 41.7589H62.2075V39.2015ZM62.2075 42.5214H63.0522C63.3337 42.5214 63.5959 42.5508 63.8422 42.6096C64.0868 42.6683 64.3034 42.7599 64.4912 42.883C64.6787 43.0061 64.8256 43.1645 64.9315 43.358C65.0368 43.5495 65.0915 43.7805 65.0934 44.0464C65.0915 44.3314 65.0346 44.5745 64.9252 44.7714C64.8159 44.9689 64.6656 45.1279 64.4756 45.247C64.2837 45.366 64.069 45.452 63.8265 45.5048C63.5844 45.5579 63.3297 45.5851 63.0637 45.5833C62.8825 45.5833 62.72 45.5792 62.579 45.5735C62.4362 45.5654 62.3131 45.5539 62.2075 45.536V42.5214ZM72.8591 45.2429C72.7204 45.3092 72.5619 45.3679 72.3826 45.417C72.2023 45.4657 72.011 45.5032 71.8073 45.5301C71.6023 45.5579 71.3951 45.571 71.182 45.571C70.5423 45.5676 69.997 45.4382 69.5473 45.1801C69.0976 44.9223 68.7533 44.5567 68.5152 44.0817C68.2767 43.6083 68.157 43.0452 68.1552 42.3924C68.157 41.8718 68.2311 41.4108 68.3764 41.0059C68.5227 40.6034 68.732 40.2609 69.0017 39.9834C69.2733 39.7037 69.5979 39.4928 69.9757 39.3478C70.3545 39.2034 70.7748 39.1312 71.2407 39.1312C71.5713 39.1331 71.8701 39.164 72.1379 39.2253C72.406 39.2856 72.6347 39.364 72.8241 39.4593L73.0819 38.6262C72.9922 38.5775 72.8616 38.5268 72.691 38.4722C72.5213 38.419 72.3122 38.3725 72.0657 38.335C71.8169 38.2959 71.5298 38.2768 71.2051 38.2747C70.5895 38.2768 70.0304 38.3765 69.5254 38.574C69.0211 38.7715 68.587 39.0531 68.2214 39.4187C67.8558 39.7843 67.5742 40.2218 67.3767 40.7284C67.1777 41.2368 67.078 41.804 67.0758 42.4274C67.0796 43.0786 67.1777 43.6533 67.3711 44.1536C67.5646 44.6523 67.8361 45.0707 68.1886 45.4095C68.5386 45.7492 68.9492 46.0054 69.422 46.1792C69.8936 46.3513 70.4092 46.4395 70.9707 46.4395C71.2932 46.4376 71.5885 46.4198 71.8585 46.3848C72.1279 46.3479 72.3669 46.3007 72.5701 46.2442C72.7735 46.1873 72.9357 46.1285 73.0588 46.0639L72.8591 45.2429ZM74.3488 38.4034V46.3104H75.3694V42.6855H75.6981C76.0303 42.6855 76.3159 42.7286 76.5543 42.8127C76.7909 42.8986 76.9943 43.0177 77.1606 43.1742C77.3265 43.3286 77.4674 43.5145 77.5827 43.7298C77.7002 43.9445 77.8021 44.183 77.8918 44.4448C77.9662 44.6545 78.0405 44.8676 78.1146 45.0845C78.189 45.3035 78.2671 45.5164 78.349 45.726C78.4315 45.9332 78.5211 46.1285 78.6189 46.3104H79.7102C79.5983 46.076 79.4949 45.8373 79.4008 45.597C79.3071 45.3542 79.2174 45.1082 79.1274 44.8539C79.0377 44.5998 78.9415 44.3395 78.8418 44.0695C78.744 43.8017 78.6346 43.5536 78.5115 43.3252C78.3905 43.0961 78.2452 42.8927 78.0755 42.7149C77.9074 42.5368 77.7058 42.3883 77.4693 42.2708C77.2327 42.1533 76.9512 42.0733 76.6246 42.0287L79.6161 38.4034H78.3961L75.6862 41.9111H75.3694V38.4034H74.3488ZM80.7067 38.4034V46.3104H81.7976L84.2729 42.3686C84.5469 41.933 84.8091 41.4908 85.0629 41.0434C85.3175 40.5956 85.5441 40.154 85.7394 39.7174L85.7744 39.7296C85.7475 40.0599 85.7279 40.3899 85.7141 40.7202C85.7004 41.053 85.6929 41.4008 85.6869 41.7624C85.6829 42.1264 85.6807 42.5189 85.6807 42.9433V46.3104H86.6428V38.4034H85.6225L83.0651 42.4743C82.7776 42.9417 82.5117 43.393 82.267 43.827C82.0229 44.2595 81.8042 44.6817 81.6101 45.0904L81.5748 45.0789C81.5986 44.7289 81.6164 44.3748 81.6295 44.0189C81.6436 43.663 81.6533 43.2973 81.6614 42.9205C81.667 42.5427 81.6689 42.1477 81.6689 41.7355V38.4034H80.7067ZM92.5086 41.7589H89.4468V39.2603H92.6964V38.4034H88.4143V46.3104H92.8723V45.4542H89.4468V42.6036H92.5086V41.7589ZM158.84 38.4034V46.3104H159.872V42.6036H163.697V46.3104H164.729V38.4034H163.697V41.7118H159.872V38.4034H158.84ZM169.691 38.2631C169.161 38.2647 168.672 38.3628 168.228 38.5584C167.783 38.7537 167.397 39.0334 167.069 39.3968C166.74 39.7624 166.486 40.1987 166.306 40.7071C166.124 41.2174 166.033 41.7861 166.031 42.4161C166.033 43.0158 166.119 43.5611 166.291 44.0539C166.463 44.5451 166.705 44.9689 167.02 45.3254C167.335 45.6811 167.71 45.9545 168.144 46.1479C168.578 46.3398 169.057 46.4376 169.585 46.4395C169.99 46.4395 170.377 46.3807 170.743 46.2654C171.108 46.152 171.445 45.9798 171.749 45.7532C172.055 45.5264 172.321 45.247 172.545 44.9108C172.77 44.5764 172.947 44.1892 173.069 43.7489C173.192 43.3089 173.255 42.8168 173.257 42.2749C173.255 41.6824 173.171 41.143 173.005 40.6543C172.839 40.1637 172.6 39.7409 172.287 39.3853C171.976 39.0278 171.601 38.7518 171.163 38.5584C170.727 38.3643 170.235 38.2647 169.691 38.2631ZM169.655 39.0956C169.996 39.0978 170.301 39.1584 170.571 39.2799C170.843 39.399 171.077 39.5649 171.279 39.7743C171.48 39.9852 171.648 40.2281 171.781 40.5015C171.914 40.7752 172.014 41.0687 172.08 41.3774C172.144 41.6883 172.178 42.0033 172.178 42.3221C172.178 42.7736 172.121 43.198 172.01 43.593C171.898 43.988 171.734 44.3355 171.519 44.6367C171.302 44.938 171.038 45.1745 170.723 45.3467C170.409 45.5164 170.049 45.6029 169.644 45.607C169.319 45.6045 169.024 45.5482 168.759 45.4364C168.492 45.3229 168.258 45.1664 168.053 44.9654C167.847 44.7639 167.675 44.5273 167.536 44.2595C167.395 43.9895 167.29 43.6964 167.218 43.3798C167.147 43.0633 167.11 42.7342 167.11 42.3924C167.11 42.0465 167.143 41.7102 167.212 41.3871C167.278 41.0646 167.38 40.7637 167.516 40.4862C167.652 40.2103 167.822 39.9677 168.025 39.759C168.228 39.5515 168.467 39.3893 168.739 39.2734C169.011 39.1565 169.315 39.0978 169.655 39.0956ZM173.949 38.4034L176.741 42.0405C176.434 42.0793 176.17 42.1533 175.945 42.2652C175.722 42.3767 175.529 42.5189 175.367 42.6952C175.206 42.8714 175.065 43.0764 174.944 43.3089C174.825 43.542 174.715 43.8001 174.618 44.0817C174.534 44.3279 174.452 44.5764 174.372 44.8267C174.293 45.0767 174.209 45.3254 174.121 45.5735C174.033 45.8217 173.932 46.0679 173.82 46.3104H174.864C174.95 46.1326 175.028 45.9351 175.103 45.7198C175.175 45.5048 175.246 45.2895 175.312 45.0708C175.378 44.852 175.443 44.6464 175.509 44.457C175.601 44.1852 175.701 43.943 175.806 43.7236C175.914 43.5064 176.041 43.3211 176.19 43.1667C176.338 43.0121 176.522 42.8927 176.741 42.8105C176.958 42.7286 177.224 42.6855 177.539 42.6855H177.903V46.3104H178.888V42.6855H179.24C179.555 42.6855 179.82 42.7286 180.039 42.8105C180.256 42.8927 180.44 43.0121 180.589 43.1667C180.738 43.3211 180.864 43.5064 180.972 43.7236C181.077 43.943 181.178 44.1852 181.269 44.457C181.332 44.6464 181.395 44.852 181.461 45.0708C181.525 45.2895 181.595 45.5048 181.668 45.7198C181.742 45.9351 181.825 46.1326 181.914 46.3104H182.958C182.851 46.0679 182.753 45.8217 182.669 45.5735C182.585 45.3254 182.503 45.0748 182.427 44.8226C182.35 44.5704 182.269 44.3201 182.184 44.0695C182.087 43.7864 181.977 43.5283 181.856 43.2933C181.734 43.0592 181.592 42.8536 181.427 42.6758C181.263 42.5002 181.068 42.3574 180.841 42.2474C180.615 42.1402 180.346 42.0693 180.038 42.0405L182.841 38.4034H181.657L179.205 41.9111H178.888V38.4034H177.903V41.9111H177.585L175.134 38.4034H173.949ZM183.979 38.4034V46.3104H185.07L187.545 42.3686C187.819 41.933 188.081 41.4908 188.335 41.0434C188.589 40.5956 188.816 40.154 189.011 39.7174L189.046 39.7296C189.019 40.0599 189 40.3899 188.986 40.7202C188.972 41.053 188.965 41.4008 188.959 41.7624C188.955 42.1264 188.952 42.5189 188.952 42.9433V46.3104H189.915V38.4034H188.894L186.337 42.4743C186.05 42.9417 185.783 43.393 185.539 43.827C185.295 44.2595 185.076 44.6817 184.882 45.0904L184.847 45.0789C184.87 44.7289 184.888 44.3748 184.902 44.0189C184.915 43.663 184.925 43.2973 184.933 42.9205C184.939 42.5427 184.941 42.1477 184.941 41.7355V38.4034H183.979Z" fill="#1F1C21"/>
</svg>
